solid OpenSCAD_Model
  facet normal 1 -0 0
    outer loop
      vertex 7.25 -7.25 35
      vertex 7.25 7.25 -35
      vertex 7.25 7.25 35
    endloop
  endfacet
  facet normal 1 0 0
    outer loop
      vertex 7.25 7.25 -35
      vertex 7.25 -7.25 35
      vertex 7.25 -7.25 -35
    endloop
  endfacet
  facet normal 0 0 1
    outer loop
      vertex 7.25 7.25 35
      vertex 6.25 6.25 35
      vertex 7.25 -7.25 35
    endloop
  endfacet
  facet normal 0 0 1
    outer loop
      vertex 7.25 7.25 35
      vertex -6.25 6.25 35
      vertex 6.25 6.25 35
    endloop
  endfacet
  facet normal 0 0 1
    outer loop
      vertex -6.25 6.25 35
      vertex -7.25 7.25 35
      vertex -6.25 -6.25 35
    endloop
  endfacet
  facet normal -0 0 1
    outer loop
      vertex -7.25 7.25 35
      vertex -6.25 6.25 35
      vertex 7.25 7.25 35
    endloop
  endfacet
  facet normal -0 0 1
    outer loop
      vertex 6.25 -6.25 35
      vertex 7.25 -7.25 35
      vertex 6.25 6.25 35
    endloop
  endfacet
  facet normal -0 0 1
    outer loop
      vertex -6.25 -6.25 35
      vertex 7.25 -7.25 35
      vertex 6.25 -6.25 35
    endloop
  endfacet
  facet normal 0 0 1
    outer loop
      vertex -6.25 -6.25 35
      vertex -7.25 -7.25 35
      vertex 7.25 -7.25 35
    endloop
  endfacet
  facet normal 0 0 1
    outer loop
      vertex -7.25 -7.25 35
      vertex -6.25 -6.25 35
      vertex -7.25 7.25 35
    endloop
  endfacet
  facet normal 0 0 -1
    outer loop
      vertex -7.25 -7.25 -35
      vertex 7.25 7.25 -35
      vertex 7.25 -7.25 -35
    endloop
  endfacet
  facet normal -0 0 -1
    outer loop
      vertex 7.25 7.25 -35
      vertex -7.25 -7.25 -35
      vertex -7.25 7.25 -35
    endloop
  endfacet
  facet normal -1 0 0
    outer loop
      vertex -7.25 -7.25 -35
      vertex -7.25 7.25 35
      vertex -7.25 7.25 -35
    endloop
  endfacet
  facet normal -1 -0 0
    outer loop
      vertex -7.25 7.25 35
      vertex -7.25 -7.25 -35
      vertex -7.25 -7.25 35
    endloop
  endfacet
  facet normal 0 1 -0
    outer loop
      vertex 7.25 7.25 -35
      vertex -7.25 7.25 35
      vertex 7.25 7.25 35
    endloop
  endfacet
  facet normal 0 1 0
    outer loop
      vertex -7.25 7.25 35
      vertex 7.25 7.25 -35
      vertex -7.25 7.25 -35
    endloop
  endfacet
  facet normal 0 -1 0
    outer loop
      vertex -7.25 -7.25 -35
      vertex 7.25 -7.25 35
      vertex -7.25 -7.25 35
    endloop
  endfacet
  facet normal 0 -1 -0
    outer loop
      vertex 7.25 -7.25 35
      vertex -7.25 -7.25 -35
      vertex 7.25 -7.25 -35
    endloop
  endfacet
  facet normal -1 0 0
    outer loop
      vertex 6.25 -6.25 -33
      vertex 6.25 6.25 35
      vertex 6.25 6.25 -33
    endloop
  endfacet
  facet normal -1 -0 0
    outer loop
      vertex 6.25 6.25 35
      vertex 6.25 -6.25 -33
      vertex 6.25 -6.25 35
    endloop
  endfacet
  facet normal -0 0 1
    outer loop
      vertex -6.25 6.25 -33
      vertex 6.25 -6.25 -33
      vertex 6.25 6.25 -33
    endloop
  endfacet
  facet normal 0 0 1
    outer loop
      vertex 6.25 -6.25 -33
      vertex -6.25 6.25 -33
      vertex -6.25 -6.25 -33
    endloop
  endfacet
  facet normal 1 -0 0
    outer loop
      vertex -6.25 -6.25 35
      vertex -6.25 6.25 -33
      vertex -6.25 6.25 35
    endloop
  endfacet
  facet normal 1 0 0
    outer loop
      vertex -6.25 6.25 -33
      vertex -6.25 -6.25 35
      vertex -6.25 -6.25 -33
    endloop
  endfacet
  facet normal 0 -1 0
    outer loop
      vertex -6.25 6.25 -33
      vertex 6.25 6.25 35
      vertex -6.25 6.25 35
    endloop
  endfacet
  facet normal 0 -1 -0
    outer loop
      vertex 6.25 6.25 35
      vertex -6.25 6.25 -33
      vertex 6.25 6.25 -33
    endloop
  endfacet
  facet normal 0 1 -0
    outer loop
      vertex 6.25 -6.25 -33
      vertex -6.25 -6.25 35
      vertex 6.25 -6.25 35
    endloop
  endfacet
  facet normal 0 1 0
    outer loop
      vertex -6.25 -6.25 35
      vertex 6.25 -6.25 -33
      vertex -6.25 -6.25 -33
    endloop
  endfacet
endsolid OpenSCAD_Model
